<svg width="12" height="12" viewBox="0 0 12 12" fill="none" xmlns="http://www.w3.org/2000/svg">
<path d="M8.3892 6.00004L8.03564 6.35359L4.32705 10.0622C4.28289 10.1091 4.2585 10.1713 4.25907 10.2357C4.25963 10.3013 4.28593 10.364 4.33228 10.4103C4.37863 10.4567 4.44133 10.483 4.50688 10.4836C4.57137 10.4841 4.63353 10.4597 4.68042 10.4156L8.91923 6.17679C8.91925 6.17677 8.91927 6.17675 8.91929 6.17673C8.96612 6.12986 8.99243 6.0663 8.99243 6.00004C8.99243 5.93377 8.96612 5.87022 8.91929 5.82334L8.91923 5.82329M8.3892 6.00004L9.27284 5.46979L8.91923 5.82329M8.3892 6.00004L8.03564 5.64648M8.3892 6.00004L8.03564 5.64648M8.91923 5.82329L4.67659 1.58064C4.67657 1.58063 4.67655 1.58061 4.67654 1.58059C4.62966 1.53376 4.56611 1.50745 4.49984 1.50745C4.4336 1.50745 4.37007 1.53374 4.3232 1.58054C4.32316 1.58057 4.32313 1.58061 4.32309 1.58064M8.91923 5.82329L4.32309 1.58064M4.32309 1.58064C4.27629 1.62751 4.25 1.69105 4.25 1.75729C4.25 1.82355 4.27631 1.88711 4.32314 1.93398M4.32309 1.58064L4.32314 1.93398M4.32314 1.93398C4.32316 1.934 4.32318 1.93402 4.3232 1.93404M4.32314 1.93398L4.3232 1.93404M4.3232 1.93404L8.03564 5.64648M4.3232 1.93404L8.03564 5.64648" fill="black" stroke="black"/>
</svg>
