<svg xmlns="http://www.w3.org/2000/svg" width="36" height="37" fill="none">
  <g fill="#000" clip-path="url(#a)">
    <path d="M6.9394.8994c-.2933.2536-1.1322 2.0036-1.4335 2.959-.3584 1.1835-.4806 2.0712-.4317 3.297.0652 1.75.505 3.0773 1.4742 4.4638.2525.3635.4561.6763.4561.7017 0 .0169-.1547.0338-.3502.0338-.839 0-2.4109.279-3.6163.6425C1.124 13.5721 0 14.5781 0 15.7025c0 .3974.3584 1.0737.7412 1.4203.7412.6679 2.362 1.302 4.105 1.6063.6027.1099 2.3945.2959 2.7936.3044.0733 0 .0978.3888.0978 1.6654 0 1.099.0407 1.9529.1221 2.4771.2932 1.8768 1.2055 3.8635 2.4109 5.2669l.4154.4819-.277.448c-.4072.6341-.562 1.116-.6108 1.8346-.1222 1.7246.9529 3.2548 3.0299 4.3285 3.9583 2.0543 10.1076 1.2512 12.4126-1.6232 1.124-1.4034 1.2543-3.0097.3665-4.4638l-.2769-.4481.4969-.6002c.9285-1.1159 1.5312-2.2319 1.9873-3.6437.3828-1.2005.5294-2.3587.5294-4.1933 0-.8369.0244-1.5301.0652-1.5301.3746-.0085 2.1746-.2029 2.7447-.3044 1.7512-.3043 3.3394-.9299 4.105-1.6063.3828-.3466.7412-1.0229.7412-1.4203 0-1.2512-1.2706-2.2657-3.6326-2.8744-.7737-.2029-2.2317-.448-2.9402-.4903l-.334-.0254.3665-.5072c.4561-.6172 1.0263-1.8176 1.2462-2.6039.619-2.2741.2362-4.9203-1.0914-7.448C29.0606.705 28.6778.4598 28.2299.874c-.1711.1607-.2444.3805-.4073 1.1752-.505 2.5277-1.4416 4.5314-2.8099 6.0108l-.6027.6594H11.5249l-.5376-.5833c-1.3357-1.471-2.305-3.5507-2.81-6.087-.1628-.7946-.2361-1.0144-.4072-1.175-.2687-.2452-.5294-.2368-.8307.0253Zm1.0425 5.0133a13.416 13.416 0 0 0 1.6045 2.6546l.505.651-.5294.3973c-.4968.3804-.961.9215-1.3195 1.5386l-.1547.279-.391-.5326c-1.3357-1.843-1.6696-4.1002-.961-6.442.342-1.1329.3339-1.1244.6434-.1437.1466.4734.4235 1.192.6027 1.5978Zm21.2009-1.7838c.3339 1.006.4643 1.8091.4643 2.849 0 1.5387-.4073 2.8406-1.2625 4.0072l-.3828.5242-.2851-.4819c-.3339-.5918-.904-1.209-1.4253-1.564-.2199-.1437-.3909-.2874-.3909-.3043 0-.0254.1547-.2198.3502-.4312.9041-1.006 1.8733-2.8152 2.3538-4.3708.1466-.4819.2932-.8792.3177-.8792.0244 0 .1466.2959.2606.651Zm-4.162 6.1799c.9041.3805 1.7674 1.471 1.9059 2.3925.0733.5073.2443.8285.4643.8793.0977.0169.7737.076 1.4986.1268 2.5738.1691 4.6018.7186 5.4652 1.471.399.3551.3583.651-.1222 1.0145-.9611.727-3.038 1.2765-5.1557 1.3695-1.4009.0592-1.6941.1015-1.8814.2959-.1385.1438-.1548.2959-.1548 1.8261 0 2.0713-.1059 3.2633-.3665 4.2271-.3665 1.3104-1.0914 2.7053-1.9385 3.6944l-.3502.4058-.7249-.4311c-.8796-.5242-1.7022-.8624-2.6877-1.0906-3.0869-.7355-6.4996-.2875-8.7964 1.1582l-.5294.3382-.334-.3974c-.4561-.5326-1.1728-1.6739-1.4579-2.3164-.6271-1.4541-.8145-2.6377-.8145-5.2416 0-2.5277.1303-2.3417-1.743-2.4432-2.3945-.1268-4.219-.558-5.3674-1.285-.847-.5411-.7086-1.023.4724-1.5894 1.1321-.5495 2.6878-.8792 4.8462-1.0145 1.6778-.1099 1.7185-.1352 1.8733-.9468.228-1.2259 1.1321-2.2404 2.2724-2.5616.285-.0846 1.8814-.1015 6.7683-.093l6.3937.0169.4642.1944Zm-4.5774 17.5c1.9955.4904 3.486 1.4034 4.1295 2.5362.1547.2621.2199.5327.2524.9469.0326.5157.0082.6425-.1873 1.0652-.9041 1.9191-4.2271 3.1872-7.6072 2.8998-4.0643-.3382-6.7358-2.6039-5.6851-4.8273.5701-1.2005 2.5005-2.3503 4.5367-2.6884.3339-.0507.6678-.1099.733-.1268.0651-.0169.7982-.0169 1.6289 0 1.1322.0253 1.6779.0761 2.1991.1944Z"/>
    <path d="M12.364 14.5444c-.505.1691-.8471.3889-1.3032.8455-.3991.3804-.4317.8285-.0977 1.099.3095.2536.6027.2198.9773-.1099.4724-.4143.8389-.5834 1.2951-.5834.4561-.0084.8063.1522 1.295.5834.3746.3297.6678.3635.9774.1099.1628-.1353.2117-.2452.2117-.4988 0-.2621-.057-.3804-.3421-.6679-.8063-.8116-2.0036-1.1244-3.0135-.7778ZM21.8606 14.5356c-.5213.1944-1.1892.634-1.458.9637-.2606.3213-.2687.6848 0 .9554.2688.2874.5946.2705.9856-.0508.961-.7946 1.6778-.82 2.5656-.0845.228.1944.4887.3466.5701.3466.3991 0 .7249-.3551.7249-.7778 0-.2705-.676-.8961-1.2869-1.192-.676-.3297-1.4823-.3889-2.1013-.1606ZM13.5448 30.1846c-.2362.2283-.3176.558-.1955.8201.0896.2113.2281.2959.7901.4481.2525.0676.3584.1521.448.3635.114.279.1221.279.7493.3043l.6271.0254v-.2367c-.0081-.3382-.1955-.8285-.4398-1.1667-.2851-.3889-.7819-.6425-1.3439-.6932-.3828-.0338-.4805-.0169-.6353.1352ZM21.3233 30.125c-.4073.1099-.9937.6594-1.1566 1.0906-.0733.1944-.1466.5411-.1547.7693-.0163.3635.0162.4481.2117.6256.4806.4227 1.1159.093 1.1159-.5833 0-.3297.2443-.558.676-.6425.4561-.0846.619-.2706.6271-.7017 0-.5664-.505-.7863-1.3194-.558Z"/>
  </g>
  <defs>
    <clipPath id="a">
      <path fill="#fff" d="M0 .6831h36v36H0z"/>
    </clipPath>
  </defs>
</svg>
