<svg xmlns="http://www.w3.org/2000/svg" width="36" height="36" fill="none">
  <path fill="#000" d="M18.1219.1205c.0904.241.2711 1.4084.2711 1.7699 0 .8962-.3314 1.7322-.9414 2.3874-.5046.5423-1.0092.8435-2.2218 1.333-1.3481.5499-1.9054.8812-2.538 1.5064-.6402.6401-1.0168 1.3405-1.1523 2.1615-.1507.8962 0 1.5288.4594 1.8903l.2335.1808-.3691.2335c-.7456.4895-2.1012 1.6418-2.3347 1.9958-.4519.6778-.4067 1.3104.1054 1.5665l.241.1205-.271.2561c-.4068.3841-.4896.6477-.4294 1.3406.0377.4594.0226.7079-.0828 1.0845-.128.4895-.128.4971.0376.8435.1657.3389.6327.7682 1.0544.9489.2034.0904.2109.1206.2561.8134.0226.3992.0602 1.672.0904 2.8318.0226 1.1599.0753 2.2218.1205 2.3498.0376.1356.1807.3163.3088.4067.4368.3013.738.6251.9338 1.0017.2185.4293.4595 1.4837 1.19 5.1289l.5121 2.5606.3164.3013c.6025.595 1.7548.8661 3.6527.8661 1.9054 0 3.0427-.2636 3.6452-.8586l.3238-.3088.467-2.3723c1.0318-5.1892 1.1221-5.4754 1.928-6.1155.2485-.2034.4895-.4519.5347-.5649.0527-.128.1055-1.1146.1431-2.6058.0301-1.3256.0753-2.636.1055-2.9147l.0451-.5046.4896-.369c.6176-.4745.8586-.9038.8586-1.5666-.0076-.7832-.5197-1.6418-1.4536-2.41l-.4443-.3615.2184-.3088c.9113-1.2577.3389-2.9975-1.3557-4.1573l-.5121-.354.1883-.1958c.8359-.8962.9715-3.5699.2711-5.4301-.4218-1.1071-1.3858-2.3122-2.5682-3.2009C19.8692.964 18.2725 0 18.1294 0c-.0301 0-.0301.0527-.0075.1205Zm2.169 2.6284c.3992.3917.8812.9264 1.0695 1.1975 1.1222 1.5666 1.4084 3.5323.7305 4.9783-.2711.5874-1.0845 1.4611-1.8376 1.9807-1.1523.7984-3.7431 2.139-5.5506 2.877-2.9072 1.1825-4.5942 1.4084-4.79.6327-.0753-.2938.1431-.5272 1.0694-1.1448.836-.5724 4.5867-3.359 4.6544-3.472.0226-.0301-.3615.1431-.8435.3841-1.6343.8285-2.41.6703-2.3724-.482.0226-.836.6251-1.785 1.4611-2.3272.2109-.1355.8661-.4368 1.4686-.6778 1.9808-.7983 2.5833-1.205 3.2536-2.2067.3992-.595.836-1.6946.8661-2.1615.0075-.1657.0377-.2937.0603-.2937.0226 0 .3615.3238.7606.7154Zm2.0561 8.5557c.5498.3088 1.1222.836 1.3707 1.2502.4368.7456.2109 1.4912-.7305 2.4402-1.0243 1.0393-2.7716 2.0335-4.6921 2.6661-1.7699.5799-3.4644.851-5.8895.9339l-1.5063.0527.9791.0603c1.2653.0828 3.713.0075 4.6619-.1431 2.523-.3992 4.6695-1.1975 6.2059-2.2971.3464-.2486.7079-.4519.8058-.4519.2486 0 1.3331 1.0393 1.5515 1.4761.1205.2486.1506.4293.128.6703-.113 1.0017-1.333 1.5364-4.2778 1.8904-3.6.4293-8.3071.0076-10.318-.9188-.949-.4368-1.1071-.6854-.8661-1.3481.0753-.2109.0904-.4594.0602-.8134-.0376-.467-.03-.5272.1356-.7004.3766-.4067 1.0092-.6402 3.3289-1.2276.8134-.2109 1.9205-.5423 2.4477-.7381 1.2803-.467 3.6828-1.6795 4.7975-2.4251 1.0468-.6929 1.1975-.723 1.8075-.3766ZM12.3453 20.523c1.5816.4594 2.9825.595 5.5883.5423 1.9582-.0377 3.1632-.1582 4.9029-.467.354-.0602.6628-.1129.7005-.1129.0828 0 .0602 2.892-.0302 3.6527-.0979.8058-.3163 1.4309-.5498 1.5816-.241.1581-1.446.3238-3.0577.4142-3.3063.1807-6.7029 0-7.7573-.4218-.5724-.2334-.6327-.5347-.6402-3.3288 0-1.8603.0151-2.1164.113-2.0787.0602.0226.3916.1205.7305.2184Zm1.785 6.4017c.5422.0678 1.1297.1356 1.3104.1581l.3239.0377-.2862.3163c-.3691.3992-.9339 1.1975-1.1373 1.6042-.2334.4669-.3087.4971-.6552.3088l-.2937-.1657-.1657-1.0243c-.0904-.5573-.1883-1.092-.2109-1.1824-.0678-.1958-.1355-.1958 1.1147-.0527Zm8.0284-.0829c0 .0151-.0376.2109-.0753.4293-.0452.226-.2335 1.4536-.4218 2.7339-.3841 2.6737-.6401 3.9314-.8736 4.3532-.3238.5648-1.0996.8962-2.3573 1.0016-.4896.0377-1.9657-.0602-2.0486-.1355-.0602-.0678 1.2352-1.672 1.4385-1.7774.1883-.1055.241-.0904.8812.241.7456.3916 1.1222.4518 1.1222.2033 0-.2485-.1958-.4895-.6778-.8209-.4444-.3163-.6025-.4971-.6025-.708 0-.0602.2184-.3991.482-.7531.2636-.354.6477-.9188.8435-1.2577l.369-.6101.3389.0452c.6854.0979.8661.0904.8435-.0602-.015-.0754-.1431-.2938-.2862-.4745-.143-.1883-.256-.3766-.256-.4142 0-.1431.7004-1.4611.9263-1.7398.1959-.241.354-.3615.354-.2561Zm-4.7071.6026c.3766.2485 1.7925 1.4761 1.8828 1.6267.0377.0678-1.4159 2.3423-1.702 2.6661-.0302.0377-.1883-.0376-.3465-.1581-.1581-.1281-.7456-.5347-1.3104-.9038l-1.0168-.6703.6101-1.0318c1.0845-1.815 1.0619-1.7849 1.2954-1.7849.1205 0 .3841.113.5874.2561Zm2.8544.2711c-.2636.3238-.482.5272-.5724.5272-.1958 0-.5121-.1732-1.0468-.5649l-.4444-.3238.8887-.0527c.482-.0226.949-.0528 1.0318-.0678.6025-.0979.6025-.0904.1431.482Zm-5.6937 3.6226c.6929.2711 1.8678.9113 2.2067 1.1975.241.1958.241.2108.1431.4518-.0603.1356-.2636.4971-.467.8059-.1958.3013-.4217.6778-.5046.836-.241.4669-.3163.5046-.8134.369-.5347-.1581-.8209-.4293-.9715-.9188-.2034-.6854-.5272-2.6209-.4896-2.9222.0151-.1129.3314-.0452.8963.1808Z"/>
</svg>
