<svg xmlns="http://www.w3.org/2000/svg" width="36" height="36" fill="none">
  <path fill="#000" d="M15.9495.6152c-4.471.663-8.1526 3.1454-9.5072 6.396-.4321 1.0268-.5485 1.6575-.5485 2.8947.0083.9137.0416 1.2533.1828 1.7465.291.9703.4987 1.4636.9308 2.1589l.399.6469-.4488.5499C3.409 19.423 3.0184 25.6329 5.9769 30.5249c1.1053 1.8355 2.9087 3.6386 4.6705 4.6898l.5236.3073 7.1636-.0566 7.172-.0647.3407-.186c1.1884-.6711 2.8671-2.167 3.8062-3.3799 1.4128-1.8436 2.3353-3.9944 2.7259-6.3232.1329-.8328.1329-3.299-.0083-4.0833-.4239-2.4177-1.3297-4.4877-2.7591-6.3232-.2743-.3477-.4903-.6388-.4903-.6631 0-.0161.1495-.2668.3241-.5498.4072-.6469.7728-1.4797.9723-2.2074.2244-.8086.2244-2.8301 0-3.6387-.7978-2.8705-3.1912-5.264-6.5736-6.582-.9474-.3719-2.568-.768-3.6151-.8974-.9723-.1132-3.374-.089-4.2799.0485Zm5.0611 1.318c4.4378.8652 7.6872 3.582 8.2856 6.9296.1329.752.0498 2.0295-.1745 2.7411-.2244.6954-.6399 1.5121-1.1303 2.2074-.1994.2831-.3656.6065-.3656.7116 0 .1051.1745.38.4238.655 2.0776 2.3044 3.1746 5.1911 3.1746 8.3123-.0083 3.5497-1.3712 6.6627-3.9973 9.1047-.4488.4204-1.0887.946-1.4294 1.1724l-.6233.4205-6.8728.0243-6.8645.0323-.5319-.3396c-1.928-1.2533-3.6649-3.3233-4.629-5.5227-1.2132-2.7815-1.3379-6.0078-.349-8.9025.5236-1.504 1.2217-2.7331 2.2854-4.0268.4322-.5175.6316-.8248.6316-.9703 0-.1213-.216-.5175-.4986-.9299-.9972-1.4474-1.4045-3.0565-1.1635-4.5766.2494-1.5363.9474-2.7977 2.2356-4.051 1.6787-1.6253 4.0222-2.7007 6.773-3.105 1.1386-.1698 3.6566-.1052 4.8201.1132Z"/>
  <path fill="#000" d="M16.3233 3.3563c-3.4073.558-6.0749 2.45-6.9475 4.9325-.1995.5579-.2327.7762-.2327 1.5767s.0332 1.0188.2327 1.5767c.1246.3558.3573.8491.5152 1.0997.4322.6954.6233.7197 1.4793.2022 1.2798-.7844 2.7508-1.3585 4.2799-1.6738 1.0305-.2102 3.0084-.2911 4.1303-.1617 1.7535.2021 3.6566.8328 5.1774 1.7304.4322.2506.8727.4609.9807.4609.6316 0 1.4377-1.8194 1.4377-3.2344 0-3.1454-3.0084-5.838-7.2717-6.5092-.9058-.1455-2.9087-.1455-3.7813 0Zm4.1137 1.2938c1.4294.3073 2.7425.8894 3.7315 1.6576 1.3296 1.027 2.0443 2.4581 1.928 3.8408-.0416.5498-.2493 1.2937-.374 1.3746-.0332.0162-.4986-.1779-1.0305-.4366-1.1053-.5337-2.3602-.9623-3.6317-1.2372-.7729-.1617-1.097-.186-2.8255-.1779-1.7037 0-2.0611.0243-2.8007.178-1.2798.2748-2.2771.6145-3.507 1.1966-1.2383.5903-1.1718.5984-1.3962-.1293-.2908-.946-.108-2.1994.4571-3.1455.2992-.5013 1.1219-1.3341 1.7203-1.7465 1.1385-.7843 2.1358-1.1401 4.2799-1.5282.4404-.0809 2.8837.0323 3.4488.1536ZM19.0827 15.0808c-.2327.2911-.2327.566.0083.8005.1579.1537.3158.1941.8892.2345 1.1136.0809 2.1774.4043 3.1331.9542.6814.4043 1.7202 1.3826 2.1856 2.0861.6898 1.0108 1.1635 2.4581 1.1635 3.5255 0 .3719.0332.4851.2078.6468.2659.2669.6149.2669.8726 0 .1828-.1859.1911-.2345.1412-1.0269-.2327-3.9135-3.5818-7.1802-7.5874-7.3986l-.8311-.0485-.1828.2264Z"/>
</svg>
