<svg aria-hidden="true" style="position: absolute; width: 0; height: 0; overflow: hidden;" version="1.1" xmlns="http://www.w3.org/2000/svg" xmlns:xlink="http://www.w3.org/1999/xlink">
<defs>
<symbol id="icon-arrow" viewBox="0 0 32 32">
<path d="M8.509 3.253c-0.317 0.374-0.509 0.863-0.509 1.396 0 0.008 0 0.016 0 0.024v-0.001c0 0.531 0.184 1.040 0.509 1.416l8.621 9.925-8.621 9.92c-0.304 0.371-0.488 0.851-0.488 1.374 0 0.014 0 0.028 0 0.042l-0-0.002c0.003 0.525 0.187 1.027 0.509 1.4s0.76 0.581 1.216 0.587c0.489-0.001 0.928-0.218 1.225-0.561l0.002-0.002 9.851-11.341c0.317-0.374 0.509-0.863 0.509-1.396 0-0.007-0-0.014-0-0.021v0.001c0-0.533-0.184-1.043-0.509-1.419l-9.851-11.341c-0.297-0.354-0.738-0.58-1.231-0.587h-0.001c-0.461 0-0.907 0.213-1.232 0.587z"></path>
</symbol>
</defs>
</svg>
